<svg width="14" height="10" viewBox="0 0 14 10" fill="none" xmlns="http://www.w3.org/2000/svg">
<path d="M12.6807 0.0625C12.7992 0.0625 12.9108 0.0875651 13.0156 0.137695C13.1204 0.183268 13.2116 0.24707 13.2891 0.329102C13.3711 0.406576 13.4349 0.497721 13.4805 0.602539C13.5306 0.707357 13.5557 0.81901 13.5557 0.9375C13.5557 1.18359 13.4714 1.39095 13.3027 1.55957L6.08398 8.77832C5.91536 8.94694 5.70801 9.03125 5.46191 9.03125C5.21582 9.03125 5.00846 8.94694 4.83984 8.77832L0.683594 4.62207C0.514974 4.45345 0.430664 4.24609 0.430664 4C0.430664 3.88151 0.453451 3.76986 0.499023 3.66504C0.549154 3.56022 0.612956 3.46908 0.69043 3.3916C0.772461 3.30957 0.865885 3.24577 0.970703 3.2002C1.08008 3.15006 1.19173 3.125 1.30566 3.125C1.55176 3.125 1.75911 3.20931 1.92773 3.37793L5.46191 6.91895L12.0586 0.31543C12.2272 0.14681 12.4346 0.0625 12.6807 0.0625Z" fill="white"/>
</svg>
