<svg width="20" height="20" viewBox="0 0 20 20" fill="none" xmlns="http://www.w3.org/2000/svg">
<path d="M5.29746 7.5C3.09996 8.06667 1.66663 9.0375 1.66663 10.1458C1.66663 11.9017 5.33746 13.3333 9.87496 13.3333C10.4916 13.3333 10.925 13.3008 11.5 13.2525" stroke="#D1D1D1" stroke-width="1.25" stroke-linecap="round" stroke-linejoin="round"/>
<path d="M8.19751 13.25C7.85335 12.7533 7.52585 12.3058 7.21418 11.75C4.92168 7.66667 4.30751 3.60834 5.85585 2.68917C6.81418 2.10834 8.39501 2.9 10.0008 4.5675" stroke="#D1D1D1" stroke-width="1.25" stroke-linecap="round" stroke-linejoin="round"/>
<path d="M5.35752 12.8225C4.77252 15.0625 4.89085 16.7525 5.82418 17.3183C7.31002 18.2183 10.3134 15.6867 12.5267 11.6483C12.8267 11.09 13.0959 10.5408 13.3334 10" stroke="#D1D1D1" stroke-width="1.25" stroke-linecap="round" stroke-linejoin="round"/>
<path d="M10 15.4333C11.6067 17.1 13.1808 17.8917 14.1483 17.3108C15.69 16.3925 15.0825 12.3342 12.7875 8.25C12.4675 7.68583 12.14 7.24667 11.8042 6.75" stroke="#D1D1D1" stroke-width="1.25" stroke-linecap="round" stroke-linejoin="round"/>
<path d="M14.7167 12.5C16.8933 11.9275 18.3333 10.9583 18.3333 9.85332C18.3333 8.09499 14.66 6.66666 10.1292 6.66666C9.50667 6.66666 9.07417 6.69082 8.5 6.73916" stroke="#D1D1D1" stroke-width="1.25" stroke-linecap="round" stroke-linejoin="round"/>
<path d="M6.66663 10C6.90413 9.45001 7.17246 8.91001 7.47329 8.35168C9.67913 4.31501 12.6841 1.77668 14.1783 2.68418C15.1033 3.25001 15.23 4.93918 14.645 7.17835" stroke="#D1D1D1" stroke-width="1.25" stroke-linecap="round" stroke-linejoin="round"/>
<path d="M10.2167 10.0125H10.2084C10.2 10.1208 10.1084 10.2125 9.99171 10.2125C9.87588 10.2068 9.78456 10.1118 9.78337 9.99584C9.78337 9.87918 9.87504 9.78751 9.98337 9.78751H9.97504C10.0834 9.77918 10.1834 9.87918 10.1834 9.98751" stroke="#D1D1D1" stroke-width="1.25" stroke-linecap="round" stroke-linejoin="round"/>
</svg>
